<svg
	viewBox="0 0 100 100"
	id="calstack-video-fullscreen-button" fill="currentColor"
>
	<polygon
		points="
			33,0
			33,11
			11,11
			11,33
			0,33
			0,0
		"
	/>
	
	<polygon
		points="
			22,11
			33, 22
			22,33
			11,22
			11,11
		"
	/>

	<polygon
		points="
			66,0
			100,0
			100,33
			89,33
			89,11
			66,11
		"
	/>

	<polygon
		points="
			78,11
			67, 22
			78,33
			89,22
			89,11
		"
	/>

	<polygon
		points="
			0,66
			11,66
			11,89
			33,89
			33,100
			0,100
		"
	/>

	<polygon
		points="
			22,89
			33, 78
			22,67
			11,78
			11,89
		"
	/>

	<polygon
		points="
			66,100
			66,89
			89,89
			89,66
			100,66
			100,100
		"
	/>

	<polygon
		points="
			78,89
			67, 78
			78,67
			89,78
			89,89
		"
	/>
</svg>